# Blender 5.0.0
# www.blender.org
o structure_wood
v -3.422144 0.000000 2.143560
v -3.422144 0.000000 2.343560
v -3.222144 0.000000 2.143560
v -3.222144 0.000000 2.343560
v -3.422144 2.000000 2.143560
v -3.222144 2.000000 2.143560
v -3.422144 2.000000 2.343560
v -3.222144 2.000000 2.343560
v -3.222144 -0.000000 0.543560
v -3.422144 -0.000000 0.543560
v -3.222144 2.000000 0.543560
v -3.422144 2.000000 0.543560
v -3.422144 2.000000 0.343560
v -3.422144 -0.000000 0.343560
v -3.222144 -0.000000 0.343560
v -3.222144 2.000000 0.343560
v -5.222144 2.000000 0.343560
v -5.022143 2.000000 0.343560
v -5.222144 2.000000 0.543560
v -5.022143 2.000000 0.543560
v -5.222144 -0.000000 0.343560
v -5.022143 -0.000000 0.343560
v -5.222144 -0.000000 0.543560
v -5.022143 -0.000000 0.543560
v -5.022143 0.000000 2.343560
v -5.022143 2.000000 2.343560
v -5.022143 0.000000 2.143560
v -5.022143 2.000000 2.143560
v -5.222144 2.000000 2.343560
v -5.222144 0.000000 2.343560
v -5.222144 2.000000 2.143560
v -5.222144 0.000000 2.143560
v -5.072144 0.142857 2.143560
v -5.072144 0.285714 2.143560
v -5.072144 0.142857 0.543560
v -5.072144 0.285714 0.543560
v -5.172143 0.285714 0.543560
v -5.172143 0.285714 2.143560
v -5.172143 0.142857 0.543560
v -5.172143 0.142857 2.143560
v -5.172143 1.285714 0.543560
v -5.172143 1.285714 2.143560
v -5.072144 1.285714 0.543560
v -5.072144 1.285714 2.143560
v -5.172143 1.428571 0.543560
v -5.072144 1.428571 0.543560
v -5.172143 1.428571 2.143560
v -5.072144 1.428571 2.143560
v -5.022143 1.428571 2.193560
v -3.422144 1.428571 2.193560
v -5.022143 1.428571 2.293560
v -3.422144 1.428571 2.293560
v -3.422144 1.285714 2.293561
v -5.022143 1.285714 2.293561
v -3.422144 1.285714 2.193560
v -5.022143 1.285714 2.193560
v -3.422144 0.142857 2.293560
v -5.022143 0.142857 2.293560
v -3.422144 0.285714 2.293560
v -5.022143 0.285714 2.293560
v -3.422144 0.142857 2.193560
v -3.422144 0.285714 2.193560
v -5.022143 0.142857 2.193560
v -5.022143 0.285714 2.193560
v -3.372144 0.142857 2.143560
v -3.372144 0.142857 0.543560
v -3.372144 0.285714 2.143560
v -3.372144 0.285714 0.543560
v -3.272144 0.142857 2.143560
v -3.272144 0.285714 2.143560
v -3.272144 0.142857 0.543560
v -3.272144 0.285714 0.543560
v -3.372144 1.285714 0.543560
v -3.372144 1.285714 2.143560
v -3.272144 1.285714 0.543560
v -3.272144 1.285714 2.143560
v -3.372144 1.428571 0.543560
v -3.272144 1.428571 0.543560
v -3.372144 1.428571 2.143560
v -3.272144 1.428571 2.143560
v -5.022143 1.428571 0.393560
v -3.422144 1.428571 0.393560
v -5.022143 1.428571 0.493560
v -3.422144 1.428571 0.493560
v -3.422144 1.285714 0.393560
v -5.022143 1.285714 0.393560
v -5.022143 1.285714 0.493560
v -3.422144 1.285714 0.493560
v -3.422144 0.142857 0.493560
v -5.022143 0.142857 0.493560
v -3.422144 0.285714 0.493560
v -5.022143 0.285714 0.493560
v -5.022143 0.285714 0.393560
v -3.422144 0.285714 0.393560
v -5.022143 0.142857 0.393560
v -3.422144 0.142857 0.393560
v -3.422144 0.610297 2.293560
v -3.894936 1.285714 2.293560
v -3.422144 0.812327 2.293560
v -3.753515 1.285714 2.293560
v -3.422144 0.812327 2.193560
v -3.753515 1.285714 2.193560
v -3.422144 0.610297 2.193560
v -3.894936 1.285714 2.193560
v -3.372144 0.812327 2.143560
v -3.372144 1.285714 1.812190
v -3.272144 0.812327 2.143560
v -3.272144 1.285714 1.812190
v -3.272144 0.610297 2.143560
v -3.272144 1.285714 1.670768
v -3.372144 0.610297 2.143560
v -3.372144 1.285714 1.670768
v -3.272144 1.285714 1.016352
v -3.272144 1.285714 0.874931
v -3.272144 0.610297 0.543560
v -3.272144 0.812327 0.543560
v -3.372144 1.285714 1.016352
v -3.372144 0.610297 0.543560
v -3.372144 1.285714 0.874931
v -3.372144 0.812327 0.543560
v -3.422144 0.812327 0.493560
v -3.753515 1.285714 0.493560
v -3.422144 0.812327 0.393560
v -3.753515 1.285714 0.393560
v -3.422144 0.610297 0.393560
v -3.894936 1.285714 0.393560
v -3.422144 0.610297 0.493560
v -3.894936 1.285714 0.493560
v -5.022143 0.610297 0.393560
v -4.549352 1.285714 0.393560
v -5.022143 0.812327 0.393560
v -4.690773 1.285714 0.393560
v -5.022143 0.610297 0.493560
v -5.022143 0.812327 0.493560
v -4.549352 1.285714 0.493560
v -4.690773 1.285714 0.493560
v -5.172143 0.610297 0.543560
v -5.172143 1.285714 1.016352
v -5.072144 0.610297 0.543560
v -5.072144 1.285714 1.016352
v -5.172143 1.285714 0.874931
v -5.172143 0.812327 0.543560
v -5.072144 1.285714 0.874931
v -5.072144 0.812327 0.543560
v -5.072144 0.610297 2.143560
v -5.072144 1.285714 1.670768
v -5.172144 0.610297 2.143560
v -5.172144 1.285714 1.670768
v -5.172144 0.812327 2.143560
v -5.172144 1.285714 1.812190
v -5.072144 0.812327 2.143560
v -5.072144 1.285714 1.812190
v -4.690773 1.285714 2.293560
v -5.022143 0.812327 2.293560
v -4.690773 1.285714 2.193560
v -5.022143 0.812327 2.193560
v -5.022143 0.610297 2.193560
v -4.549352 1.285714 2.193560
v -5.022143 0.610297 2.293560
v -4.549352 1.285714 2.293560
vn -0.0000 -1.0000 -0.0000
vn -0.0000 1.0000 -0.0000
vn 1.0000 -0.0000 -0.0000
vn -0.0000 -0.0000 -1.0000
vn -1.0000 -0.0000 -0.0000
vn -0.0000 -0.0000 1.0000
vn 0.8192 0.5735 -0.0000
vn -0.8192 -0.5735 -0.0000
vn -0.0000 0.5735 0.8192
vn -0.0000 -0.5735 -0.8192
vn -0.0000 0.5735 -0.8192
vn -0.0000 -0.5735 0.8192
vn 0.8192 -0.5735 -0.0000
vn -0.8192 0.5735 -0.0000
vt 0.593750 0.175000
vt 0.593750 0.075000
vt 0.593750 0.075000
vt 0.593750 0.086111
vt 0.593750 0.086111
vt 0.593750 0.163889
vt 0.593750 0.163889
vt 0.593750 0.145088
s 1
f 1/1/1 3/1/1 2/1/1
f 4/1/1 2/1/1 3/1/1
f 5/2/2 7/2/2 6/2/2
f 8/2/2 6/2/2 7/2/2
f 4/1/3 3/1/3 8/2/3
f 6/2/3 8/2/3 3/1/3
f 1/1/4 5/2/4 3/1/4
f 6/2/4 3/1/4 5/2/4
f 7/2/5 5/2/5 2/1/5
f 1/1/5 2/1/5 5/2/5
f 4/1/6 8/2/6 2/1/6
f 7/2/6 2/1/6 8/2/6
f 9/1/6 11/2/6 10/1/6
f 12/2/6 10/1/6 11/2/6
f 12/2/5 13/2/5 10/1/5
f 14/1/5 10/1/5 13/2/5
f 14/1/1 15/1/1 10/1/1
f 9/1/1 10/1/1 15/1/1
f 13/2/2 12/2/2 16/2/2
f 11/2/2 16/2/2 12/2/2
f 14/1/4 13/2/4 15/1/4
f 16/2/4 15/1/4 13/2/4
f 9/1/3 15/1/3 11/2/3
f 16/2/3 11/2/3 15/1/3
f 17/2/2 19/2/2 18/2/2
f 20/2/2 18/2/2 19/2/2
f 21/1/4 17/2/4 22/1/4
f 18/2/4 22/1/4 17/2/4
f 19/2/5 17/2/5 23/1/5
f 21/1/5 23/1/5 17/2/5
f 21/1/1 22/1/1 23/1/1
f 24/1/1 23/1/1 22/1/1
f 24/1/3 22/1/3 20/2/3
f 18/2/3 20/2/3 22/1/3
f 24/1/6 20/2/6 23/1/6
f 19/2/6 23/1/6 20/2/6
f 25/1/3 27/1/3 26/2/3
f 28/2/3 26/2/3 27/1/3
f 29/2/5 31/2/5 30/1/5
f 32/1/5 30/1/5 31/2/5
f 32/1/1 27/1/1 30/1/1
f 25/1/1 30/1/1 27/1/1
f 25/1/6 26/2/6 30/1/6
f 29/2/6 30/1/6 26/2/6
f 31/2/2 29/2/2 28/2/2
f 26/2/2 28/2/2 29/2/2
f 32/1/4 31/2/4 27/1/4
f 28/2/4 27/1/4 31/2/4
f 33/3/3 35/2/3 34/4/3
f 36/5/3 34/4/3 35/2/3
f 37/5/2 38/4/2 36/5/2
f 34/4/2 36/5/2 38/4/2
f 39/2/4 37/5/4 35/2/4
f 36/5/4 35/2/4 37/5/4
f 40/3/5 38/4/5 39/2/5
f 37/5/5 39/2/5 38/4/5
f 39/2/1 35/2/1 40/3/1
f 33/3/1 40/3/1 35/2/1
f 41/6/1 43/6/1 42/7/1
f 44/7/1 42/7/1 43/6/1
f 45/1/2 47/1/2 46/1/2
f 48/1/2 46/1/2 47/1/2
f 44/7/3 43/6/3 48/1/3
f 46/1/3 48/1/3 43/6/3
f 41/6/4 45/1/4 43/6/4
f 46/1/4 43/6/4 45/1/4
f 42/7/5 47/1/5 41/6/5
f 45/1/5 41/6/5 47/1/5
f 49/1/2 51/1/2 50/1/2
f 52/1/2 50/1/2 51/1/2
f 53/6/6 52/1/6 54/7/6
f 51/1/6 54/7/6 52/1/6
f 55/6/4 56/7/4 50/1/4
f 49/1/4 50/1/4 56/7/4
f 56/7/1 55/6/1 54/7/1
f 53/6/1 54/7/1 55/6/1
f 57/2/6 59/5/6 58/3/6
f 60/4/6 58/3/6 59/5/6
f 61/2/4 63/3/4 62/5/4
f 64/4/4 62/5/4 63/3/4
f 63/3/1 61/2/1 58/3/1
f 57/2/1 58/3/1 61/2/1
f 64/4/2 60/4/2 62/5/2
f 59/5/2 62/5/2 60/4/2
f 65/3/5 67/4/5 66/2/5
f 68/5/5 66/2/5 67/4/5
f 69/3/3 71/2/3 70/4/3
f 72/5/3 70/4/3 71/2/3
f 66/2/1 71/2/1 65/3/1
f 69/3/1 65/3/1 71/2/1
f 66/2/4 68/5/4 71/2/4
f 72/5/4 71/2/4 68/5/4
f 68/5/2 67/4/2 72/5/2
f 70/4/2 72/5/2 67/4/2
f 73/6/1 75/6/1 74/7/1
f 76/7/1 74/7/1 75/6/1
f 77/1/2 79/1/2 78/1/2
f 80/1/2 78/1/2 79/1/2
f 74/7/5 79/1/5 73/6/5
f 77/1/5 73/6/5 79/1/5
f 73/6/4 77/1/4 75/6/4
f 78/1/4 75/6/4 77/1/4
f 76/7/3 75/6/3 80/1/3
f 78/1/3 80/1/3 75/6/3
f 81/1/2 83/1/2 82/1/2
f 84/1/2 82/1/2 83/1/2
f 85/6/4 86/7/4 82/1/4
f 81/1/4 82/1/4 86/7/4
f 86/7/1 85/6/1 87/7/1
f 88/6/1 87/7/1 85/6/1
f 88/6/6 84/1/6 87/7/6
f 83/1/6 87/7/6 84/1/6
f 89/2/6 91/5/6 90/3/6
f 92/4/6 90/3/6 91/5/6
f 93/4/2 92/4/2 94/5/2
f 91/5/2 94/5/2 92/4/2
f 95/3/1 96/2/1 90/3/1
f 89/2/1 90/3/1 96/2/1
f 96/2/4 95/3/4 94/5/4
f 93/4/4 94/5/4 95/3/4
f 97/1/6 99/8/6 98/2/6
f 100/2/6 98/2/6 99/8/6
f 99/8/7 101/8/7 100/2/7
f 102/2/7 100/2/7 101/8/7
f 103/1/4 104/2/4 101/8/4
f 102/2/4 101/8/4 104/2/4
f 97/1/8 98/2/8 103/1/8
f 104/2/8 103/1/8 98/2/8
f 105/8/9 107/8/9 106/2/9
f 108/2/9 106/2/9 107/8/9
f 109/1/10 111/1/10 110/2/10
f 112/2/10 110/2/10 111/1/10
f 105/8/5 106/2/5 111/1/5
f 112/2/5 111/1/5 106/2/5
f 109/1/3 110/2/3 107/8/3
f 108/2/3 107/8/3 110/2/3
f 113/2/3 115/1/3 114/2/3
f 116/8/3 114/2/3 115/1/3
f 117/2/5 119/2/5 118/1/5
f 120/8/5 118/1/5 119/2/5
f 116/8/11 120/8/11 114/2/11
f 119/2/11 114/2/11 120/8/11
f 118/1/12 115/1/12 117/2/12
f 113/2/12 117/2/12 115/1/12
f 121/8/7 123/8/7 122/2/7
f 124/2/7 122/2/7 123/8/7
f 125/1/4 126/2/4 123/8/4
f 124/2/4 123/8/4 126/2/4
f 127/1/8 128/2/8 125/1/8
f 126/2/8 125/1/8 128/2/8
f 127/1/6 121/8/6 128/2/6
f 122/2/6 128/2/6 121/8/6
f 129/1/4 131/8/4 130/2/4
f 132/2/4 130/2/4 131/8/4
f 133/1/6 135/2/6 134/8/6
f 136/2/6 134/8/6 135/2/6
f 135/2/13 133/1/13 130/2/13
f 129/1/13 130/2/13 133/1/13
f 136/2/14 132/2/14 134/8/14
f 131/8/14 134/8/14 132/2/14
f 137/1/12 139/1/12 138/2/12
f 140/2/12 138/2/12 139/1/12
f 138/2/5 141/2/5 137/1/5
f 142/8/5 137/1/5 141/2/5
f 140/2/3 139/1/3 143/2/3
f 144/8/3 143/2/3 139/1/3
f 144/8/11 142/8/11 143/2/11
f 141/2/11 143/2/11 142/8/11
f 145/1/10 147/1/10 146/2/10
f 148/2/10 146/2/10 147/1/10
f 149/8/9 151/8/9 150/2/9
f 152/2/9 150/2/9 151/8/9
f 145/1/3 146/2/3 151/8/3
f 152/2/3 151/8/3 146/2/3
f 149/8/5 150/2/5 147/1/5
f 148/2/5 147/1/5 150/2/5
f 153/2/14 155/2/14 154/8/14
f 156/8/14 154/8/14 155/2/14
f 157/1/4 156/8/4 158/2/4
f 155/2/4 158/2/4 156/8/4
f 159/1/6 160/2/6 154/8/6
f 153/2/6 154/8/6 160/2/6
f 160/2/13 159/1/13 158/2/13
f 157/1/13 158/2/13 159/1/13
