# Blender 4.5.4 LTS
# www.blender.org
mtllib idle_00.mtl
o Cube
v 1.000000 -1.000000 1.000000
v 1.000000 1.000000 1.000000
v 1.000000 -1.000000 -1.000000
v 1.000000 1.000000 -1.000000
v 0.275246 -2.255204 -0.275246
v 0.275246 -2.255204 0.275246
v 2.574297 -0.448916 0.448916
v 2.574297 0.448916 0.448916
v 2.574297 -0.448916 -0.448916
v 2.574297 0.448916 -0.448916
v 3.555521 -0.448916 0.448916
v 3.887040 0.448916 0.448916
v 3.555521 -0.448916 -0.448916
v 3.887040 0.448916 -0.448916
v 2.943136 0.925184 -0.196653
v 2.943136 0.925184 0.196653
v 3.518200 0.925184 -0.196653
v 3.518200 0.925184 0.196653
v 0.000000 1.000000 1.000000
v 0.000000 -1.000000 -1.000000
v 0.000000 1.000000 -1.000000
v 0.000000 -1.000000 1.000000
v 0.000000 -2.255204 -0.275246
v 0.000000 -2.255204 0.275246
v 0.171764 2.803340 -0.656471
v 0.828236 2.803340 -0.656471
v 0.828236 2.803340 0.656471
v 0.171764 2.803340 0.656471
v -1.000000 -1.000000 1.000000
v -1.000000 1.000000 1.000000
v -1.000000 -1.000000 -1.000000
v -1.000000 1.000000 -1.000000
v -0.275246 -2.255204 -0.275246
v -0.275246 -2.255204 0.275246
v -2.574297 -0.448916 0.448916
v -2.574297 0.448916 0.448916
v -2.574297 -0.448916 -0.448916
v -2.574297 0.448916 -0.448916
v -3.555521 -0.448916 0.448916
v -3.887040 0.448916 0.448916
v -3.555521 -0.448916 -0.448916
v -3.887040 0.448916 -0.448916
v -2.943136 0.925184 -0.196653
v -2.943136 0.925184 0.196653
v -3.518200 0.925184 -0.196653
v -3.518200 0.925184 0.196653
v -0.171764 2.803340 -0.656471
v -0.828236 2.803340 -0.656471
v -0.828236 2.803340 0.656471
v -0.171764 2.803340 0.656471
vn -0.9955 0.0948 -0.0000
vn 0.3304 -0.0000 -0.9438
vn -0.0000 -0.0000 1.0000
vn -0.0000 -0.5000 -0.8660
vn 0.8660 -0.5000 -0.0000
vn -0.7906 0.6123 -0.0000
vn 0.3304 -0.0000 0.9438
vn 0.3304 0.9438 -0.0000
vn 0.3304 -0.9438 -0.0000
vn 0.9381 -0.3464 -0.0000
vn -0.0000 -0.0000 -1.0000
vn -0.0000 -1.0000 -0.0000
vn -0.0000 1.0000 -0.0000
vn -0.0000 0.4681 0.8837
vn -0.0000 0.4681 -0.8837
vn 0.7906 0.6123 -0.0000
vn -0.0000 -0.5000 0.8660
vn 0.9955 0.0948 -0.0000
vn -0.0000 0.1871 -0.9823
vn -0.0000 0.1871 0.9823
vn -0.3304 -0.0000 -0.9438
vn -0.8660 -0.5000 -0.0000
vn -0.3304 -0.0000 0.9438
vn -0.3304 0.9438 -0.0000
vn -0.3304 -0.9438 -0.0000
vn -0.9381 -0.3464 -0.0000
vt 0.000000 0.000000
vt 0.375000 0.750000
vt 0.625000 0.750000
vt 0.625000 0.375000
vt 0.375000 0.500000
vt 0.375000 0.375000
vt 0.625000 0.875000
vt 0.625000 0.500000
vt 0.750000 0.500000
vt 0.375000 0.875000
vt 0.250000 0.750000
vt 0.250000 0.500000
vt 0.750000 0.750000
s 0
usemtl Material
f 19/1/1 25/1/1 21/1/1
f 4/2/2 9/3/2 3/3/2
f 22/4/3 2/5/3 19/6/3
f 20/7/4 5/3/4 23/7/4
f 1/8/5 5/3/5 3/3/5
f 8/5/6 15/2/6 10/2/6
f 1/8/7 8/5/7 2/5/7
f 2/5/8 10/2/8 4/2/8
f 3/3/9 7/8/9 1/8/9
f 11/8/10 14/2/10 12/5/10
f 10/2/11 13/3/11 9/3/11
f 9/3/12 11/8/12 7/8/12
f 8/5/3 11/8/3 12/5/3
f 16/5/13 17/2/13 15/2/13
f 8/5/14 18/5/14 16/5/14
f 10/2/15 17/2/15 14/2/15
f 14/2/16 18/5/16 12/5/16
f 24/9/12 5/3/12 6/8/12
f 3/3/11 21/10/11 4/2/11
f 22/4/17 6/8/17 1/8/17
f 27/5/13 25/11/13 28/12/13
f 4/2/18 27/5/18 2/5/18
f 21/10/19 26/2/19 4/2/19
f 2/5/20 28/6/20 19/6/20
f 47/1/18 19/1/18 21/1/18
f 37/3/21 32/2/21 31/3/21
f 30/5/3 22/4/3 19/6/3
f 20/7/4 33/3/4 31/3/4
f 33/3/22 29/8/22 31/3/22
f 43/2/16 36/5/16 38/2/16
f 36/5/23 29/8/23 30/5/23
f 38/2/24 30/5/24 32/2/24
f 35/8/25 31/3/25 29/8/25
f 42/2/26 39/8/26 40/5/26
f 41/3/11 38/2/11 37/3/11
f 39/8/12 37/3/12 35/8/12
f 36/5/3 39/8/3 35/8/3
f 45/2/13 44/5/13 43/2/13
f 36/5/14 46/5/14 40/5/14
f 45/2/15 38/2/15 42/2/15
f 46/5/6 42/2/6 40/5/6
f 33/3/12 24/9/12 34/8/12
f 21/10/11 31/3/11 32/2/11
f 34/8/17 22/4/17 29/8/17
f 47/11/13 49/5/13 50/12/13
f 49/5/1 32/2/1 30/5/1
f 48/2/19 21/10/19 32/2/19
f 50/6/20 30/5/20 19/6/20
f 19/1/1 28/1/1 25/1/1
f 4/2/2 10/2/2 9/3/2
f 22/4/3 1/8/3 2/5/3
f 20/7/4 3/3/4 5/3/4
f 1/8/5 6/8/5 5/3/5
f 8/5/6 16/5/6 15/2/6
f 1/8/7 7/8/7 8/5/7
f 2/5/8 8/5/8 10/2/8
f 3/3/9 9/3/9 7/8/9
f 11/8/10 13/3/10 14/2/10
f 10/2/11 14/2/11 13/3/11
f 9/3/12 13/3/12 11/8/12
f 8/5/3 7/8/3 11/8/3
f 16/5/13 18/5/13 17/2/13
f 8/5/14 12/5/14 18/5/14
f 10/2/15 15/2/15 17/2/15
f 14/2/16 17/2/16 18/5/16
f 24/9/12 23/13/12 5/3/12
f 3/3/11 20/7/11 21/10/11
f 22/4/17 24/4/17 6/8/17
f 27/5/13 26/2/13 25/11/13
f 4/2/18 26/2/18 27/5/18
f 21/10/19 25/10/19 26/2/19
f 2/5/20 27/5/20 28/6/20
f 47/1/18 50/1/18 19/1/18
f 37/3/21 38/2/21 32/2/21
f 30/5/3 29/8/3 22/4/3
f 20/7/4 23/7/4 33/3/4
f 33/3/22 34/8/22 29/8/22
f 43/2/16 44/5/16 36/5/16
f 36/5/23 35/8/23 29/8/23
f 38/2/24 36/5/24 30/5/24
f 35/8/25 37/3/25 31/3/25
f 42/2/26 41/3/26 39/8/26
f 41/3/11 42/2/11 38/2/11
f 39/8/12 41/3/12 37/3/12
f 36/5/3 40/5/3 39/8/3
f 45/2/13 46/5/13 44/5/13
f 36/5/14 44/5/14 46/5/14
f 45/2/15 43/2/15 38/2/15
f 46/5/6 45/2/6 42/2/6
f 33/3/12 23/13/12 24/9/12
f 21/10/11 20/7/11 31/3/11
f 34/8/17 24/4/17 22/4/17
f 47/11/13 48/2/13 49/5/13
f 49/5/1 48/2/1 32/2/1
f 48/2/19 47/10/19 21/10/19
f 50/6/20 49/5/20 30/5/20
