# Blender 5.0.0
# www.blender.org
o Cylinder
v 0.000000 -1.712061 1.000000
v 0.000000 1.000000 1.000000
v -0.464723 -1.712061 0.885456
v -0.464723 1.000000 0.885456
v -0.822984 -1.712061 0.568065
v -0.822984 1.000000 0.568065
v -0.992709 -1.712061 0.120537
v -0.992709 1.000000 0.120537
v -0.935016 -1.712061 -0.354605
v -0.935016 1.000000 -0.354605
v -0.663123 -1.712061 -0.748511
v -0.663123 1.000000 -0.748511
v -0.239316 -1.712061 -0.970942
v -0.239316 1.000000 -0.970942
v 0.239316 -1.712061 -0.970942
v 0.239316 1.000000 -0.970942
v 0.663123 -1.712061 -0.748511
v 0.663123 1.000000 -0.748511
v 0.935016 -1.712061 -0.354605
v 0.935016 1.000000 -0.354605
v 0.992709 -1.712061 0.120537
v 0.992709 1.000000 0.120537
v 0.822984 -1.712061 0.568065
v 0.822984 1.000000 0.568065
v 0.464723 -1.712061 0.885456
v 0.464723 1.000000 0.885456
v -0.388034 1.114032 0.739337
v 0.000000 1.114032 0.834979
v -0.687174 1.114032 0.474322
v -0.828891 1.114032 0.100646
v -0.780719 1.114032 -0.296088
v -0.553693 1.114032 -0.624991
v -0.199823 1.114032 -0.810716
v 0.199823 1.114032 -0.810716
v 0.553693 1.114032 -0.624991
v 0.780719 1.114032 -0.296088
v 0.828891 1.114032 0.100646
v 0.687174 1.114032 0.474322
v 0.388034 1.114032 0.739337
v -0.275654 1.352367 0.525215
v 0.000000 1.352367 0.593158
v -0.488159 1.352367 0.336952
v -0.588833 1.352367 0.071497
v -0.554612 1.352367 -0.210337
v -0.393336 1.352367 -0.443985
v -0.141952 1.352367 -0.575922
v 0.141952 1.352367 -0.575922
v 0.393336 1.352367 -0.443985
v 0.554612 1.352367 -0.210337
v 0.588833 1.352367 0.071497
v 0.488159 1.352367 0.336952
v 0.275654 1.352367 0.525215
v -0.231292 1.579544 0.440691
v 0.000000 1.579544 0.497699
v -0.409599 1.579544 0.282726
v -0.494071 1.579544 0.059991
v -0.465357 1.579544 -0.176487
v -0.330036 1.579544 -0.372533
v -0.119107 1.579544 -0.483237
v 0.119107 1.579544 -0.483237
v 0.330036 1.579544 -0.372533
v 0.465357 1.579544 -0.176487
v 0.494071 1.579544 0.059991
v 0.409599 1.579544 0.282726
v 0.231292 1.579544 0.440691
v -0.160847 1.739150 0.306468
v 0.000000 1.739150 0.346113
v -0.284845 1.739150 0.196615
v -0.343589 1.739150 0.041719
v -0.323621 1.739150 -0.122733
v -0.229515 1.739150 -0.259069
v -0.082830 1.739150 -0.336056
v 0.082830 1.739150 -0.336056
v 0.229515 1.739150 -0.259069
v 0.323621 1.739150 -0.122733
v 0.343589 1.739150 0.041719
v 0.284845 1.739150 0.196615
v 0.160847 1.739150 0.306468
v -0.125044 2.024824 0.238252
v -0.000000 2.024824 0.269072
v -0.221442 2.024824 0.152850
v -0.267110 2.024824 0.032433
v -0.251587 2.024824 -0.095414
v -0.178428 2.024824 -0.201403
v -0.064393 2.024824 -0.261254
v 0.064393 2.024824 -0.261254
v 0.178428 2.024824 -0.201403
v 0.251587 2.024824 -0.095414
v 0.267110 2.024824 0.032433
v 0.221442 2.024824 0.152850
v 0.125044 2.024824 0.238252
v -0.215933 1.826168 0.191363
v -0.162636 1.826168 0.238580
v -0.188681 1.948956 0.172552
v -0.147247 1.948956 0.209259
vn -0.2393 -0.0000 0.9709
vn -0.6631 -0.0000 0.7485
vn -0.9350 -0.0000 0.3546
vn -0.9927 -0.0000 -0.1205
vn -0.8230 -0.0000 -0.5681
vn -0.4647 -0.0000 -0.8855
vn -0.0000 -0.0000 -1.0000
vn 0.4647 -0.0000 -0.8855
vn 0.8230 -0.0000 -0.5681
vn 0.9927 -0.0000 -0.1205
vn 0.9350 -0.0000 0.3546
vn -0.3845 0.8147 0.4340
vn 0.6631 -0.0000 0.7485
vn 0.2393 -0.0000 0.9709
vn -0.0000 -1.0000 -0.0000
vn -0.0000 0.7018 -0.7124
vn -0.0000 0.8147 -0.5798
vn 0.3845 0.8147 0.4340
vn -0.4772 0.8147 -0.3294
vn 0.5756 0.8147 -0.0699
vn -0.5422 0.8147 0.2056
vn 0.2695 0.8147 -0.5134
vn -0.1388 0.8147 0.5630
vn 0.1388 0.8147 0.5630
vn -0.2695 0.8147 -0.5134
vn 0.5422 0.8147 0.2056
vn -0.5756 0.8147 -0.0699
vn 0.4772 0.8147 -0.3294
vn -0.8657 0.3778 0.3283
vn 0.3311 0.7018 -0.6308
vn -0.1705 0.7018 0.6917
vn 0.5863 0.7018 -0.4047
vn -0.4724 0.7018 0.5332
vn 0.7072 0.7018 -0.0859
vn -0.6661 0.7018 0.2526
vn 0.6661 0.7018 0.2526
vn -0.7072 0.7018 -0.0859
vn 0.4724 0.7018 0.5332
vn -0.5863 0.7018 -0.4047
vn 0.1705 0.7018 0.6917
vn -0.3311 0.7018 -0.6308
vn 0.4875 0.6779 0.5503
vn 0.8657 0.3778 0.3283
vn -0.9192 0.3778 -0.1116
vn 0.6140 0.3778 0.6931
vn -0.7620 0.3778 -0.5260
vn 0.2216 0.3778 0.8990
vn -0.4303 0.3778 -0.8198
vn -0.0000 0.3778 -0.9259
vn 0.4303 0.3778 -0.8198
vn -0.2216 0.3778 0.8990
vn 0.7620 0.3778 -0.5260
vn -0.6140 0.3778 0.6931
vn 0.9192 0.3778 -0.1116
vn -0.2315 0.2533 0.9393
vn -0.6050 0.6779 -0.4176
vn 0.1759 0.6779 0.7138
vn -0.3416 0.6779 -0.6509
vn -0.0000 0.6779 -0.7351
vn 0.3416 0.6779 -0.6509
vn -0.1759 0.6779 0.7138
vn 0.6050 0.6779 -0.4176
vn -0.4875 0.6779 0.5503
vn 0.7298 0.6779 -0.0886
vn -0.6874 0.6779 0.2607
vn 0.6874 0.6779 0.2607
vn -0.7298 0.6779 -0.0886
vn -0.0000 1.0000 -0.0000
vn 0.7961 0.2533 -0.5495
vn -0.9498 0.1801 0.2559
vn 0.9603 0.2533 -0.1166
vn -0.9045 0.2533 0.3430
vn 0.9045 0.2533 0.3430
vn -0.9603 0.2533 -0.1166
vn 0.6415 0.2533 0.7241
vn -0.7961 0.2533 -0.5495
vn 0.2315 0.2533 0.9393
vn -0.4496 0.2533 -0.8566
vn -0.0000 0.2533 -0.9674
vn 0.4496 0.2533 -0.8566
vn -0.6415 0.2533 0.7241
vn -0.6603 -0.0916 0.7454
vn -0.5760 0.4954 0.6502
vn -0.1580 0.1837 0.9702
vt 1.000000 1.000000
vt 0.923077 0.500000
vt 1.000000 0.500000
vt 0.923077 1.000000
vt 0.846154 0.500000
vt 0.846154 1.000000
vt 0.769231 0.500000
vt 0.769231 1.000000
vt 0.692308 0.500000
vt 0.692308 1.000000
vt 0.615385 0.500000
vt 0.615385 1.000000
vt 0.538462 0.500000
vt 0.538462 1.000000
vt 0.461538 0.500000
vt 0.461538 1.000000
vt 0.384615 0.500000
vt 0.384615 1.000000
vt 0.307692 0.500000
vt 0.307692 1.000000
vt 0.230769 0.500000
vt 0.230769 1.000000
vt 0.153846 0.500000
vt 0.153846 1.000000
vt 0.076923 0.500000
vt 0.076923 1.000000
vt 0.000000 0.500000
vt 0.861534 0.462509
vt 0.909149 0.070357
vt 0.525596 0.164895
vt 0.000000 1.000000
vt 0.250000 0.490000
vt 0.025596 0.164895
vt 0.409149 0.070357
vt 0.361534 0.462509
vt 0.447516 0.386336
vt 0.638466 0.462509
vt 0.750000 0.490000
vt 0.947516 0.386336
vt 0.988250 0.278929
vt 0.974404 0.164895
vt 0.807436 0.016974
vt 0.692564 0.016974
vt 0.590851 0.070357
vt 0.511750 0.278929
vt 0.552484 0.386336
vt 0.138466 0.462509
vt 0.052484 0.386336
vt 0.011750 0.278929
vt 0.090851 0.070357
vt 0.192564 0.016974
vt 0.307436 0.016974
vt 0.474404 0.164895
vt 0.488250 0.278929
s 0
f 2/1/1 3/2/1 1/3/1
f 4/4/2 5/5/2 3/2/2
f 6/6/3 7/7/3 5/5/3
f 8/8/4 9/9/4 7/7/4
f 10/10/5 11/11/5 9/9/5
f 12/12/6 13/13/6 11/11/6
f 14/14/7 15/15/7 13/13/7
f 16/16/8 17/17/8 15/15/8
f 18/18/9 19/19/9 17/17/9
f 20/20/10 21/21/10 19/19/10
f 22/22/11 23/23/11 21/21/11
f 4/4/12 29/6/12 6/6/12
f 24/24/13 25/25/13 23/23/13
f 26/26/14 1/27/14 25/25/14
f 3/28/15 11/29/15 19/30/15
f 33/14/16 47/16/16 34/16/16
f 16/16/17 33/14/17 34/16/17
f 24/24/18 39/26/18 26/26/18
f 10/10/19 32/12/19 12/12/19
f 20/20/20 37/22/20 22/22/20
f 6/6/21 30/8/21 8/8/21
f 18/18/22 34/16/22 35/18/22
f 2/1/23 27/4/23 4/4/23
f 26/26/24 28/31/24 2/31/24
f 14/14/25 32/12/25 33/14/25
f 22/22/26 38/24/26 24/24/26
f 8/8/27 31/10/27 10/10/27
f 20/20/28 35/18/28 36/20/28
f 42/6/29 56/8/29 43/8/29
f 34/16/30 48/18/30 35/18/30
f 28/1/31 40/4/31 27/4/31
f 36/20/32 48/18/32 49/20/32
f 27/4/33 42/6/33 29/6/33
f 37/22/34 49/20/34 50/22/34
f 29/6/35 43/8/35 30/8/35
f 37/22/36 51/24/36 38/24/36
f 30/8/37 44/10/37 31/10/37
f 38/24/38 52/26/38 39/26/38
f 31/10/39 45/12/39 32/12/39
f 39/26/40 41/31/40 28/31/40
f 32/12/41 46/14/41 33/14/41
f 64/24/42 78/26/42 65/26/42
f 50/22/43 64/24/43 51/24/43
f 43/8/44 57/10/44 44/10/44
f 51/24/45 65/26/45 52/26/45
f 44/10/46 58/12/46 45/12/46
f 52/26/47 54/31/47 41/31/47
f 45/12/48 59/14/48 46/14/48
f 46/14/49 60/16/49 47/16/49
f 48/18/50 60/16/50 61/18/50
f 40/4/51 54/1/51 53/4/51
f 48/18/52 62/20/52 49/20/52
f 40/4/53 55/6/53 42/6/53
f 49/20/54 63/22/54 50/22/54
f 66/4/55 80/1/55 79/4/55
f 58/12/56 70/10/56 71/12/56
f 54/31/57 78/26/57 67/31/57
f 58/12/58 72/14/58 59/14/58
f 59/14/59 73/16/59 60/16/59
f 61/18/60 73/16/60 74/18/60
f 54/1/61 66/4/61 53/4/61
f 61/18/62 75/20/62 62/20/62
f 53/4/63 68/6/63 55/6/63
f 63/22/64 75/20/64 76/22/64
f 55/6/65 69/8/65 56/8/65
f 63/22/66 77/24/66 64/24/66
f 56/8/67 70/10/67 57/10/67
f 80/32/68 88/33/68 84/34/68
f 74/18/69 88/20/69 75/20/69
f 79/4/70 93/4/70 66/4/70
f 75/20/71 89/22/71 76/22/71
f 69/8/72 81/6/72 82/8/72
f 76/22/73 90/24/73 77/24/73
f 69/8/74 83/10/74 70/10/74
f 78/26/75 90/24/75 91/26/75
f 70/10/76 84/12/76 71/12/76
f 67/31/77 91/26/77 80/31/77
f 71/12/78 85/14/78 72/14/78
f 72/14/79 86/16/79 73/16/79
f 73/16/80 87/18/80 74/18/80
f 92/6/81 95/4/81 94/6/81
f 79/35/82 94/36/82 95/35/82
f 66/4/83 92/6/83 68/6/83
f 81/6/84 92/6/84 94/6/84
f 2/1/1 4/4/1 3/2/1
f 4/4/2 6/6/2 5/5/2
f 6/6/3 8/8/3 7/7/3
f 8/8/4 10/10/4 9/9/4
f 10/10/5 12/12/5 11/11/5
f 12/12/6 14/14/6 13/13/6
f 14/14/7 16/16/7 15/15/7
f 16/16/8 18/18/8 17/17/8
f 18/18/9 20/20/9 19/19/9
f 20/20/10 22/22/10 21/21/10
f 22/22/11 24/24/11 23/23/11
f 4/4/12 27/4/12 29/6/12
f 24/24/13 26/26/13 25/25/13
f 26/26/14 2/31/14 1/27/14
f 25/37/15 1/38/15 3/28/15
f 3/28/15 5/39/15 7/40/15
f 7/40/15 9/41/15 11/29/15
f 11/29/15 13/42/15 15/43/15
f 15/43/15 17/44/15 19/30/15
f 19/30/15 21/45/15 23/46/15
f 23/46/15 25/37/15 3/28/15
f 3/28/15 7/40/15 11/29/15
f 11/29/15 15/43/15 19/30/15
f 19/30/15 23/46/15 3/28/15
f 33/14/16 46/14/16 47/16/16
f 16/16/17 14/14/17 33/14/17
f 24/24/18 38/24/18 39/26/18
f 10/10/19 31/10/19 32/12/19
f 20/20/20 36/20/20 37/22/20
f 6/6/21 29/6/21 30/8/21
f 18/18/22 16/16/22 34/16/22
f 2/1/23 28/1/23 27/4/23
f 26/26/24 39/26/24 28/31/24
f 14/14/25 12/12/25 32/12/25
f 22/22/26 37/22/26 38/24/26
f 8/8/27 30/8/27 31/10/27
f 20/20/28 18/18/28 35/18/28
f 42/6/29 55/6/29 56/8/29
f 34/16/30 47/16/30 48/18/30
f 28/1/31 41/1/31 40/4/31
f 36/20/32 35/18/32 48/18/32
f 27/4/33 40/4/33 42/6/33
f 37/22/34 36/20/34 49/20/34
f 29/6/35 42/6/35 43/8/35
f 37/22/36 50/22/36 51/24/36
f 30/8/37 43/8/37 44/10/37
f 38/24/38 51/24/38 52/26/38
f 31/10/39 44/10/39 45/12/39
f 39/26/40 52/26/40 41/31/40
f 32/12/41 45/12/41 46/14/41
f 64/24/42 77/24/42 78/26/42
f 50/22/43 63/22/43 64/24/43
f 43/8/44 56/8/44 57/10/44
f 51/24/45 64/24/45 65/26/45
f 44/10/46 57/10/46 58/12/46
f 52/26/47 65/26/47 54/31/47
f 45/12/48 58/12/48 59/14/48
f 46/14/49 59/14/49 60/16/49
f 48/18/50 47/16/50 60/16/50
f 40/4/51 41/1/51 54/1/51
f 48/18/52 61/18/52 62/20/52
f 40/4/53 53/4/53 55/6/53
f 49/20/54 62/20/54 63/22/54
f 66/4/55 67/1/55 80/1/55
f 58/12/56 57/10/56 70/10/56
f 54/31/57 65/26/57 78/26/57
f 58/12/58 71/12/58 72/14/58
f 59/14/59 72/14/59 73/16/59
f 61/18/60 60/16/60 73/16/60
f 54/1/61 67/1/61 66/4/61
f 61/18/62 74/18/62 75/20/62
f 53/4/63 66/4/63 68/6/63
f 63/22/64 62/20/64 75/20/64
f 55/6/65 68/6/65 69/8/65
f 63/22/66 76/22/66 77/24/66
f 56/8/67 69/8/67 70/10/67
f 81/36/68 79/35/68 80/32/68
f 80/32/68 91/47/68 90/48/68
f 90/48/68 89/49/68 88/33/68
f 88/33/68 87/50/68 86/51/68
f 86/51/68 85/52/68 84/34/68
f 84/34/68 83/53/68 82/54/68
f 82/54/68 81/36/68 80/32/68
f 80/32/68 90/48/68 88/33/68
f 88/33/68 86/51/68 84/34/68
f 84/34/68 82/54/68 80/32/68
f 74/18/69 87/18/69 88/20/69
f 79/4/70 95/4/70 93/4/70
f 75/20/71 88/20/71 89/22/71
f 69/8/72 68/6/72 81/6/72
f 76/22/73 89/22/73 90/24/73
f 69/8/74 82/8/74 83/10/74
f 78/26/75 77/24/75 90/24/75
f 70/10/76 83/10/76 84/12/76
f 67/31/77 78/26/77 91/26/77
f 71/12/78 84/12/78 85/14/78
f 72/14/79 85/14/79 86/16/79
f 73/16/80 86/16/80 87/18/80
f 92/6/81 93/4/81 95/4/81
f 79/35/82 81/36/82 94/36/82
f 66/4/83 93/4/83 92/6/83
f 81/6/84 68/6/84 92/6/84
