# Blender 5.0.0
# www.blender.org
o Cylinder
v 0.000000 -1.712061 1.000000
v 0.000000 1.000000 1.000000
v -0.464723 -1.712061 0.885456
v -0.464723 1.000000 0.885456
v -0.822984 -1.712061 0.568065
v -0.822984 1.000000 0.568065
v -0.992709 -1.712061 0.120537
v -0.992709 1.000000 0.120537
v -0.935016 -1.712061 -0.354605
v -0.935016 1.000000 -0.354605
v -0.663123 -1.712061 -0.748511
v -0.663123 1.000000 -0.748511
v -0.239316 -1.712061 -0.970942
v -0.239316 1.000000 -0.970942
v 0.239316 -1.712061 -0.970942
v 0.239316 1.000000 -0.970942
v 0.663123 -1.712061 -0.748511
v 0.663123 1.000000 -0.748511
v 0.935016 -1.712061 -0.354605
v 0.935016 1.000000 -0.354605
v 0.992709 -1.712061 0.120537
v 0.992709 1.000000 0.120537
v 0.822984 -1.712061 0.568065
v 0.822984 1.000000 0.568065
v 0.464723 -1.712061 0.885456
v 0.464723 1.000000 0.885456
v -0.388034 1.114032 0.739337
v 0.000000 1.114032 0.834979
v -0.687174 1.114032 0.474322
v -0.828891 1.114032 0.100646
v -0.780719 1.114032 -0.296088
v -0.553693 1.114032 -0.624991
v -0.199823 1.114032 -0.810716
v 0.199823 1.114032 -0.810716
v 0.553693 1.114032 -0.624991
v 0.780719 1.114032 -0.296088
v 0.828891 1.114032 0.100646
v 0.687174 1.114032 0.474322
v 0.388034 1.114032 0.739337
v -0.275654 1.352367 0.525215
v 0.000000 1.352367 0.593158
v -0.488159 1.352367 0.336952
v -0.588833 1.352367 0.071497
v -0.554612 1.352367 -0.210337
v -0.393336 1.352367 -0.443985
v -0.141952 1.352367 -0.575922
v 0.141952 1.352367 -0.575922
v 0.393336 1.352367 -0.443985
v 0.554612 1.352367 -0.210337
v 0.588833 1.352367 0.071497
v 0.488159 1.352367 0.336952
v 0.275654 1.352367 0.525215
v -0.231292 1.579544 0.440691
v 0.000000 1.579544 0.497699
v -0.409599 1.579544 0.282726
v -0.494071 1.579544 0.059991
v -0.465357 1.579544 -0.176487
v -0.330036 1.579544 -0.372533
v -0.119107 1.579544 -0.483237
v 0.119107 1.579544 -0.483237
v 0.330036 1.579544 -0.372533
v 0.465357 1.579544 -0.176487
v 0.494071 1.579544 0.059991
v 0.409599 1.579544 0.282726
v 0.231292 1.579544 0.440691
v -0.160847 1.739150 0.306468
v 0.000000 1.739150 0.346113
v -0.284845 1.739150 0.196615
v -0.343589 1.739150 0.041719
v -0.323621 1.739150 -0.122733
v -0.229515 1.739150 -0.259069
v -0.082830 1.739150 -0.336056
v 0.082830 1.739150 -0.336056
v 0.229515 1.739150 -0.259069
v 0.323621 1.739150 -0.122733
v 0.343589 1.739150 0.041719
v 0.284845 1.739150 0.196615
v 0.160847 1.739150 0.306468
v -0.125044 2.024824 0.238252
v -0.000000 2.024824 0.269072
v -0.221442 2.024824 0.152850
v -0.267110 2.024824 0.032433
v -0.251587 2.024824 -0.095414
v -0.178428 2.024824 -0.201403
v -0.064393 2.024824 -0.261254
v 0.064393 2.024824 -0.261254
v 0.178428 2.024824 -0.201403
v 0.251587 2.024824 -0.095414
v 0.267110 2.024824 0.032433
v 0.221442 2.024824 0.152850
v 0.125044 2.024824 0.238252
v -0.215933 1.826168 0.191363
v -0.162636 1.826168 0.238580
v -0.188681 1.948956 0.172552
v -0.147247 1.948956 0.209259
vn -0.2393 -0.0000 0.9709
vn -0.6631 -0.0000 0.7485
vn -0.9350 -0.0000 0.3546
vn -0.9927 -0.0000 -0.1205
vn -0.8230 -0.0000 -0.5681
vn -0.4647 -0.0000 -0.8855
vn -0.0000 -0.0000 -1.0000
vn 0.4647 -0.0000 -0.8855
vn 0.8230 -0.0000 -0.5681
vn 0.9927 -0.0000 -0.1205
vn 0.9350 -0.0000 0.3546
vn -0.3845 0.8147 0.4340
vn 0.6631 -0.0000 0.7485
vn 0.2393 -0.0000 0.9709
vn -0.0000 -1.0000 -0.0000
vn -0.0000 0.7018 -0.7124
vn -0.0000 0.8147 -0.5798
vn 0.3845 0.8147 0.4340
vn -0.4772 0.8147 -0.3294
vn 0.5756 0.8147 -0.0699
vn -0.5422 0.8147 0.2056
vn 0.2695 0.8147 -0.5134
vn -0.1388 0.8147 0.5630
vn 0.1388 0.8147 0.5630
vn -0.2695 0.8147 -0.5134
vn 0.5422 0.8147 0.2056
vn -0.5756 0.8147 -0.0699
vn 0.4772 0.8147 -0.3294
vn -0.8657 0.3778 0.3283
vn 0.3311 0.7018 -0.6308
vn -0.1705 0.7018 0.6917
vn 0.5863 0.7018 -0.4047
vn -0.4724 0.7018 0.5332
vn 0.7072 0.7018 -0.0859
vn -0.6661 0.7018 0.2526
vn 0.6661 0.7018 0.2526
vn -0.7072 0.7018 -0.0859
vn 0.4724 0.7018 0.5332
vn -0.5863 0.7018 -0.4047
vn 0.1705 0.7018 0.6917
vn -0.3311 0.7018 -0.6308
vn 0.4875 0.6779 0.5503
vn 0.8657 0.3778 0.3283
vn -0.9192 0.3778 -0.1116
vn 0.6140 0.3778 0.6931
vn -0.7620 0.3778 -0.5260
vn 0.2216 0.3778 0.8990
vn -0.4303 0.3778 -0.8198
vn -0.0000 0.3778 -0.9259
vn 0.4303 0.3778 -0.8198
vn -0.2216 0.3778 0.8990
vn 0.7620 0.3778 -0.5260
vn -0.6140 0.3778 0.6931
vn 0.9192 0.3778 -0.1116
vn -0.2315 0.2533 0.9393
vn -0.6050 0.6779 -0.4176
vn 0.1759 0.6779 0.7138
vn -0.3416 0.6779 -0.6509
vn -0.0000 0.6779 -0.7351
vn 0.3416 0.6779 -0.6509
vn -0.1759 0.6779 0.7138
vn 0.6050 0.6779 -0.4176
vn -0.4875 0.6779 0.5503
vn 0.7298 0.6779 -0.0886
vn -0.6874 0.6779 0.2607
vn 0.6874 0.6779 0.2607
vn -0.7298 0.6779 -0.0886
vn -0.0000 1.0000 -0.0000
vn 0.7961 0.2533 -0.5495
vn -0.9498 0.1801 0.2559
vn 0.9603 0.2533 -0.1166
vn -0.9045 0.2533 0.3430
vn 0.9045 0.2533 0.3430
vn -0.9603 0.2533 -0.1166
vn 0.6415 0.2533 0.7241
vn -0.7961 0.2533 -0.5495
vn 0.2315 0.2533 0.9393
vn -0.4496 0.2533 -0.8566
vn -0.0000 0.2533 -0.9674
vn 0.4496 0.2533 -0.8566
vn -0.6415 0.2533 0.7241
vn -0.6603 -0.0916 0.7454
vn -0.5760 0.4954 0.6502
vn -0.1580 0.1837 0.9702
vt 0.319733 0.002332
vt 0.369040 0.469467
vt 0.319733 0.459896
vt 0.369040 0.011903
vt 0.442939 0.474571
vt 0.442939 0.017007
vt 0.524498 0.474039
vt 0.524498 0.016475
vt 0.595035 0.467993
vt 0.595035 0.010429
vt 0.638390 0.457817
vt 0.000254 0.000254
vt 0.046631 0.467459
vt 0.000254 0.455659
vt 0.046631 0.012054
vt 0.118919 0.474122
vt 0.118919 0.018717
vt 0.200559 0.474122
vt 0.200559 0.018717
vt 0.272848 0.467459
vt 0.272848 0.012054
vt 0.319225 0.455659
vt 0.000254 0.474630
vt 0.072543 0.936698
vt 0.000254 0.930035
vt 0.636378 0.565137
vt 0.566251 0.527194
vt 0.582240 0.504029
vt 0.072543 0.481293
vt 0.154183 0.936698
vt 0.154183 0.481293
vt 0.226471 0.930035
vt 0.955543 0.248848
vt 0.676838 0.282688
vt 0.744026 0.010095
vt 0.825226 0.663965
vt 0.783735 0.593735
vt 0.830789 0.603606
vt 0.319733 0.685225
vt 0.347062 0.610321
vt 0.347062 0.678488
vt 0.582240 0.784781
vt 0.611454 0.710591
vt 0.636378 0.723672
vt 0.424861 0.484919
vt 0.378741 0.549961
vt 0.357673 0.531296
vt 0.424861 0.803890
vt 0.502513 0.785788
vt 0.505906 0.813730
vt 0.502513 0.503021
vt 0.505906 0.475079
vt 0.357673 0.757513
vt 0.378741 0.738848
vt 0.655915 0.644405
vt 0.611454 0.578218
vt 0.627768 0.644405
vt 0.319733 0.603585
vt 0.566251 0.761616
vt 0.434842 0.511238
vt 0.434842 0.777571
vt 0.781941 0.783272
vt 0.741286 0.739221
vt 0.781941 0.734893
vt 0.783735 0.545309
vt 0.830789 0.535438
vt 0.574931 0.597386
vt 0.825226 0.475079
vt 0.779783 0.502431
vt 0.823383 0.853335
vt 0.828047 0.791660
vt 0.449469 0.739004
vt 0.497541 0.744842
vt 0.828047 0.723558
vt 0.994182 0.853516
vt 0.952692 0.783286
vt 0.999746 0.793157
vt 0.778628 0.693031
vt 0.823383 0.664630
vt 0.952692 0.734860
vt 0.999746 0.724989
vt 0.409615 0.577313
vt 0.948740 0.691982
vt 0.994182 0.664630
vt 0.387111 0.620192
vt 0.911768 0.779389
vt 0.880559 0.744945
vt 0.911768 0.738757
vt 0.948740 0.826164
vt 0.738506 0.704096
vt 0.733583 0.682486
vt 0.772760 0.667276
vt 0.908452 0.702779
vt 0.772784 0.664122
vt 0.739495 0.625816
vt 0.779783 0.636613
vt 0.742811 0.589838
vt 0.742811 0.549206
vt 0.778628 0.827085
vt 0.733583 0.841085
vt 0.738506 0.816576
vt 0.739495 0.513228
vt 0.741286 0.779815
vt 0.941741 0.853673
vt 0.908452 0.815367
vt 0.708730 0.800110
vt 0.656423 0.804767
vt 0.659085 0.791517
vt 0.259597 0.605711
vt 0.226979 0.633147
vt 0.233741 0.605711
vt 0.878252 0.719925
vt 0.226979 0.578276
vt 0.249874 0.566260
vt 0.711602 0.583650
vt 0.711602 0.555394
vt 0.310823 0.606892
vt 0.285718 0.572448
vt 0.310823 0.566260
vt 0.709296 0.530374
vt 0.710663 0.774545
vt 0.260106 0.606892
vt 0.285210 0.572448
vt 0.285210 0.600704
vt 0.710663 0.746316
vt 0.880559 0.773201
vt 0.708730 0.721889
vt 0.267343 0.565752
vt 0.232236 0.498862
vt 0.307228 0.489757
vt 0.659598 0.539087
vt 0.693486 0.789255
vt 0.656423 0.526609
vt 0.705212 0.514322
vt 0.660588 0.771642
vt 0.660588 0.749696
vt 0.878252 0.798221
vt 0.830348 0.770057
vt 0.659085 0.730706
vt 0.830348 0.748090
vt 0.656423 0.719023
vt 0.705306 0.706860
vt 0.828555 0.728639
vt 0.705212 0.624722
vt 0.659598 0.599956
vt 0.709296 0.608670
vt 0.661391 0.580505
vt 0.661391 0.558538
vt 0.694317 0.778267
vt 0.672148 0.785562
vt 0.672794 0.777019
vt 0.316866 0.566260
vt 0.311331 0.600338
vt 0.311331 0.579086
vt 0.638390 0.000254
vt 0.319225 0.000254
vt 0.226471 0.474630
vt 0.955543 0.090312
vt 0.975081 0.169580
vt 0.901406 0.309956
vt 0.825071 0.338906
vt 0.744026 0.329065
vt 0.638898 0.210400
vt 0.638898 0.128760
vt 0.676838 0.056471
vt 0.825071 0.000254
vt 0.901406 0.029204
vt 0.586520 0.644405
vt 0.449469 0.549805
vt 0.733623 0.648898
vt 0.772760 0.856294
vt 0.902579 0.838449
vt 0.705306 0.817154
vt 0.249874 0.645163
vt 0.285718 0.600704
vt 0.260106 0.566260
vt 0.307228 0.550625
vt 0.289149 0.563104
vt 0.246803 0.557962
vt 0.232236 0.541520
vt 0.226979 0.520191
vt 0.246803 0.482420
vt 0.267343 0.474630
vt 0.289149 0.477278
vt 0.317437 0.509207
vt 0.317437 0.531174
vt 0.828555 0.789508
vt 0.656423 0.612435
vt 0.316866 0.615704
s 0
f 2/1/1 3/2/1 1/3/1
f 4/4/2 5/5/2 3/2/2
f 6/6/3 7/7/3 5/5/3
f 8/8/4 9/9/4 7/7/4
f 10/10/5 11/11/5 9/9/5
f 12/12/6 13/13/6 11/14/6
f 14/15/7 15/16/7 13/13/7
f 16/17/8 17/18/8 15/16/8
f 18/19/9 19/20/9 17/18/9
f 20/21/10 21/22/10 19/20/10
f 22/23/11 23/24/11 21/25/11
f 4/26/12 29/27/12 6/28/12
f 24/29/13 25/30/13 23/24/13
f 26/31/14 1/32/14 25/30/14
f 3/33/15 11/34/15 19/35/15
f 33/36/16 47/37/16 34/38/16
f 16/39/17 33/40/17 34/41/17
f 24/42/18 39/43/18 26/44/18
f 10/45/19 32/46/19 12/47/19
f 20/48/20 37/49/20 22/50/20
f 6/28/21 30/51/21 8/52/21
f 18/53/22 34/41/22 35/54/22
f 2/55/23 27/56/23 4/26/23
f 26/44/24 28/57/24 2/55/24
f 14/58/25 32/46/25 33/40/25
f 22/50/26 38/59/26 24/42/26
f 8/52/27 31/60/27 10/45/27
f 20/48/28 35/54/28 36/61/28
f 42/62/29 56/63/29 43/64/29
f 34/38/30 48/65/30 35/66/30
f 28/57/31 40/67/31 27/56/31
f 36/68/32 48/65/32 49/69/32
f 27/70/33 42/62/33 29/71/33
f 37/49/34 49/72/34 50/73/34
f 29/71/35 43/64/35 30/74/35
f 37/75/36 51/76/36 38/77/36
f 30/74/37 44/78/37 31/79/37
f 38/77/38 52/80/38 39/81/38
f 31/60/39 45/82/39 32/46/39
f 39/81/40 41/83/40 28/84/40
f 32/46/41 46/85/41 33/40/41
f 64/86/42 78/87/42 65/88/42
f 50/89/43 64/86/43 51/76/43
f 43/64/44 57/90/44 44/78/44
f 51/76/45 65/88/45 52/80/45
f 44/78/46 58/91/46 45/92/46
f 52/80/47 54/93/47 41/83/47
f 45/94/48 59/95/48 46/96/48
f 46/96/49 60/97/49 47/37/49
f 48/65/50 60/97/50 61/98/50
f 40/99/51 54/100/51 53/101/51
f 48/65/52 62/102/52 49/69/52
f 40/99/53 55/103/53 42/62/53
f 49/104/54 63/105/54 50/89/54
f 66/106/55 80/107/55 79/108/55
f 58/109/56 70/110/56 71/111/56
f 54/93/57 78/87/57 67/112/57
f 58/109/58 72/113/58 59/114/58
f 59/95/59 73/115/59 60/97/59
f 61/98/60 73/115/60 74/116/60
f 54/117/61 66/118/61 53/119/61
f 61/98/62 75/120/62 62/102/62
f 53/101/63 68/121/63 55/103/63
f 63/122/64 75/123/64 76/124/64
f 55/103/65 69/125/65 56/63/65
f 63/105/66 77/126/66 64/86/66
f 56/63/67 70/127/67 57/90/67
f 80/128/68 88/129/68 84/130/68
f 74/116/69 88/131/69 75/120/69
f 79/108/70 93/132/70 66/106/70
f 75/120/71 89/133/71 76/134/71
f 69/125/72 81/135/72 82/136/72
f 76/137/73 90/138/73 77/126/73
f 69/125/74 83/139/74 70/127/74
f 78/87/75 90/138/75 91/140/75
f 70/127/76 84/141/76 71/142/76
f 67/112/77 91/140/77 80/143/77
f 71/144/78 85/145/78 72/146/78
f 72/146/79 86/147/79 73/115/79
f 73/115/80 87/148/80 74/116/80
f 92/149/81 95/150/81 94/151/81
f 79/108/82 94/151/82 95/150/82
f 66/106/83 92/149/83 68/121/83
f 81/152/84 92/153/84 94/154/84
f 2/1/1 4/4/1 3/2/1
f 4/4/2 6/6/2 5/5/2
f 6/6/3 8/8/3 7/7/3
f 8/8/4 10/10/4 9/9/4
f 10/10/5 12/155/5 11/11/5
f 12/12/6 14/15/6 13/13/6
f 14/15/7 16/17/7 15/16/7
f 16/17/8 18/19/8 17/18/8
f 18/19/9 20/21/9 19/20/9
f 20/21/10 22/156/10 21/22/10
f 22/23/11 24/29/11 23/24/11
f 4/26/12 27/56/12 29/27/12
f 24/29/13 26/31/13 25/30/13
f 26/31/14 2/157/14 1/32/14
f 25/158/15 1/159/15 3/33/15
f 3/33/15 5/160/15 7/161/15
f 7/161/15 9/162/15 11/34/15
f 11/34/15 13/163/15 15/164/15
f 15/164/15 17/165/15 19/35/15
f 19/35/15 21/166/15 23/167/15
f 23/167/15 25/158/15 3/33/15
f 3/33/15 7/161/15 11/34/15
f 11/34/15 15/164/15 19/35/15
f 19/35/15 23/167/15 3/33/15
f 33/36/16 46/96/16 47/37/16
f 16/39/17 14/58/17 33/40/17
f 24/42/18 38/59/18 39/43/18
f 10/45/19 31/60/19 32/46/19
f 20/48/20 36/61/20 37/49/20
f 6/28/21 29/27/21 30/51/21
f 18/53/22 16/39/22 34/41/22
f 2/55/23 28/57/23 27/56/23
f 26/44/24 39/43/24 28/57/24
f 14/58/25 12/47/25 32/46/25
f 22/50/26 37/49/26 38/59/26
f 8/52/27 30/51/27 31/60/27
f 20/48/28 18/53/28 35/54/28
f 42/62/29 55/103/29 56/63/29
f 34/38/30 47/37/30 48/65/30
f 28/57/31 41/168/31 40/67/31
f 36/68/32 35/66/32 48/65/32
f 27/70/33 40/99/33 42/62/33
f 37/49/34 36/61/34 49/72/34
f 29/71/35 42/62/35 43/64/35
f 37/75/36 50/89/36 51/76/36
f 30/74/37 43/64/37 44/78/37
f 38/77/38 51/76/38 52/80/38
f 31/60/39 44/169/39 45/82/39
f 39/81/40 52/80/40 41/83/40
f 32/46/41 45/82/41 46/85/41
f 64/86/42 77/126/42 78/87/42
f 50/89/43 63/105/43 64/86/43
f 43/64/44 56/63/44 57/90/44
f 51/76/45 64/86/45 65/88/45
f 44/78/46 57/90/46 58/91/46
f 52/80/47 65/88/47 54/93/47
f 45/94/48 58/170/48 59/95/48
f 46/96/49 59/95/49 60/97/49
f 48/65/50 47/37/50 60/97/50
f 40/99/51 41/171/51 54/100/51
f 48/65/52 61/98/52 62/102/52
f 40/99/53 53/101/53 55/103/53
f 49/104/54 62/172/54 63/105/54
f 66/106/55 67/173/55 80/107/55
f 58/109/56 57/174/56 70/110/56
f 54/93/57 65/88/57 78/87/57
f 58/109/58 71/111/58 72/113/58
f 59/95/59 72/146/59 73/115/59
f 61/98/60 60/97/60 73/115/60
f 54/117/61 67/175/61 66/118/61
f 61/98/62 74/116/62 75/120/62
f 53/101/63 66/106/63 68/121/63
f 63/122/64 62/176/64 75/123/64
f 55/103/65 68/121/65 69/125/65
f 63/105/66 76/137/66 77/126/66
f 56/63/67 69/125/67 70/127/67
f 81/177/68 79/178/68 80/128/68
f 80/128/68 91/179/68 90/180/68
f 90/180/68 89/181/68 88/129/68
f 88/129/68 87/182/68 86/183/68
f 86/183/68 85/184/68 84/130/68
f 84/130/68 83/185/68 82/186/68
f 82/186/68 81/177/68 80/128/68
f 80/128/68 90/180/68 88/129/68
f 88/129/68 86/183/68 84/130/68
f 84/130/68 82/186/68 80/128/68
f 74/116/69 87/148/69 88/131/69
f 79/108/70 95/150/70 93/132/70
f 75/120/71 88/131/71 89/133/71
f 69/125/72 68/121/72 81/135/72
f 76/137/73 89/187/73 90/138/73
f 69/125/74 82/136/74 83/139/74
f 78/87/75 77/126/75 90/138/75
f 70/127/76 83/139/76 84/141/76
f 67/112/77 78/87/77 91/140/77
f 71/144/78 84/188/78 85/145/78
f 72/146/79 85/145/79 86/147/79
f 73/115/80 86/147/80 87/148/80
f 92/149/81 93/132/81 95/150/81
f 79/108/82 81/135/82 94/151/82
f 66/106/83 93/132/83 92/149/83
f 81/152/84 68/189/84 92/153/84
