# Blender 5.0.0
# www.blender.org
o half_pipe
v -5.920308 1.651131 -3.553660
v -5.920308 -0.348869 -3.553660
v -3.920308 1.651131 -3.553660
v -3.920308 -0.348869 -3.553660
v -5.920308 -0.348869 -1.553660
v -5.920308 -0.148869 -1.553660
v -3.920308 -0.348869 -1.553660
v -3.920308 -0.148869 -1.553660
v -3.920308 0.051131 -1.553660
v -3.920308 0.078390 -1.812479
v -3.920308 0.105650 -2.071298
v -3.920308 0.265490 -2.553660
v -3.920308 0.519760 -2.967874
v -3.920308 0.851131 -3.285711
v -3.920308 1.237020 -3.485512
v -3.920308 1.444076 -3.519586
v -5.920308 0.265490 -2.553660
v -5.920308 0.105650 -2.071298
v -5.920308 0.078390 -1.812479
v -5.920308 0.051131 -1.553660
v -5.920308 0.519760 -2.967874
v -5.920308 0.851131 -3.285711
v -5.920308 1.237020 -3.485512
v -5.920308 1.444076 -3.519586
v -5.920308 -0.148869 -1.553660
v -5.920308 0.051131 -1.553660
v -3.920308 -0.148869 -1.553660
v -3.920308 0.051131 -1.553660
v -5.920308 0.078390 -1.812479
v -3.920308 0.078390 -1.812479
v -5.920308 1.444076 -3.519586
v -3.920308 1.444076 -3.519586
vn -0.0000 -0.0000 -1.0000
vn -0.0000 -0.0000 1.0000
vn 1.0000 -0.0000 -0.0000
vn 1.0000 0.0001 0.0017
vn -0.1241 -0.1771 -0.9763
vn -0.0000 -1.0000 -0.0000
vn -1.0000 -0.0000 -0.0000
vn 0.1241 -0.1771 -0.9763
vn 0.2448 -0.1730 -0.9540
vn -0.0051 -0.1785 -0.9839
vn -0.0000 0.3150 0.9491
vn -0.0000 0.3371 0.9415
vn -0.0000 0.1624 0.9867
vn -0.0000 0.2898 0.9571
vn -0.0000 0.9068 0.4217
vn -0.0000 0.9775 0.2109
vn -0.0000 0.7786 0.6275
vn -0.0000 0.5820 0.8132
vn -0.0000 0.9945 0.1047
vt 0.593750 0.075000
vt 0.593750 0.175000
vt 0.593750 0.162059
vt 0.593750 0.149118
vt 0.593750 0.125000
vt 0.593750 0.104289
vt 0.593750 0.088397
vt 0.593750 0.078407
vt 0.593750 0.076704
vt 0.218750 0.225000
vt 0.218750 0.199118
vt 0.218750 0.028407
vt 0.218750 0.025000
s 1
f 1/1/1 3/1/1 2/1/1
f 4/1/1 2/1/1 3/1/1
f 5/2/2 7/2/2 6/2/2
f 8/2/2 6/2/2 7/2/2
f 9/2/3 8/2/3 10/3/3
f 10/3/3 8/2/3 11/4/3
f 11/4/3 8/2/3 12/5/4
f 8/2/3 7/2/3 12/5/4
f 12/5/4 7/2/3 13/6/3
f 7/2/3 4/1/3 13/6/3
f 14/7/3 13/6/3 4/1/3
f 15/8/3 14/7/3 4/1/3
f 3/1/3 15/8/3 4/1/3
f 16/9/5 15/8/3 3/1/3
f 4/1/6 7/2/6 2/1/6
f 5/2/6 2/1/6 7/2/6
f 5/2/7 6/2/7 2/1/7
f 17/5/7 2/1/7 6/2/7
f 18/4/7 17/5/7 6/2/7
f 19/3/7 18/4/7 6/2/7
f 20/2/7 19/3/7 6/2/7
f 21/6/7 2/1/7 17/5/7
f 22/7/7 2/1/7 21/6/7
f 23/8/7 2/1/7 22/7/7
f 1/1/7 2/1/7 23/8/7
f 24/9/8 1/1/9 23/8/10
f 23/8/11 15/8/12 24/9/13
f 16/9/13 24/9/13 15/8/14
f 17/5/15 18/4/16 12/5/15
f 11/4/16 12/5/15 18/4/16
f 21/6/17 13/6/17 22/7/18
f 14/7/18 22/7/18 13/6/17
f 18/4/16 19/3/19 11/4/16
f 10/3/19 11/4/16 19/3/19
f 22/7/18 14/7/18 23/8/11
f 15/8/12 23/8/11 14/7/18
f 21/6/17 17/5/15 13/6/17
f 12/5/15 13/6/17 17/5/15
f 25/10/2 27/10/2 26/10/2
f 28/10/2 26/10/2 27/10/2
f 29/11/19 26/10/19 30/11/19
f 28/10/19 30/11/19 26/10/19
f 31/12/13 32/12/13 1/13/13
f 3/13/13 1/13/13 32/12/13
