# Blender 5.0.0
# www.blender.org
mtllib halfpipe.mtl
o bowl_side
v -10.540392 0.800000 2.200000
v -10.540392 0.800000 2.100000
v -9.540392 0.800000 2.200000
v -9.540392 0.800000 2.100000
v -10.540392 0.696472 2.086370
v -9.540392 0.696472 2.086370
v -10.540392 0.013630 1.403528
v -10.540392 -0.000000 1.300000
v -9.540392 0.013630 1.403528
v -9.540392 -0.000000 1.300000
v -10.540392 0.000000 2.300000
v -9.540392 0.000000 2.300000
v -10.540392 0.800000 2.300000
v -10.540392 0.800000 2.200000
v -9.540392 0.800000 2.300000
v -9.540392 0.800000 2.200000
v -9.540392 0.800000 2.100000
v -9.540392 0.696472 2.086370
v -9.540392 0.592945 2.072741
v -9.540392 0.400000 1.992820
v -9.540392 0.234315 1.865685
v -9.540392 0.107180 1.700000
v -9.540392 0.027259 1.507055
v -9.540392 0.013630 1.403528
v -10.540392 0.400000 1.992820
v -10.540392 0.592945 2.072741
v -10.540392 0.696472 2.086370
v -10.540392 0.800000 2.100000
v -10.540392 0.234315 1.865685
v -10.540392 0.107180 1.700000
v -10.540392 0.027259 1.507055
v -10.540392 0.013630 1.403528
vn -0.0000 1.0000 -0.0000
vn -0.0000 0.1305 -0.9914
vn -0.0000 0.9914 -0.1305
vn -0.0000 -1.0000 -0.0000
vn 1.0000 -0.0000 -0.0000
vn 1.0000 0.0001 -0.0000
vn 0.9314 -0.3608 0.0479
vn -0.0000 -0.0000 1.0000
vn -1.0000 -0.0000 -0.0000
vn -0.9314 -0.3608 0.0479
vn -0.9305 -0.3633 0.0478
vn -0.9325 -0.3579 0.0479
vn -0.0000 0.9659 -0.2588
vn -0.0000 0.9659 -0.2589
vn -0.0000 0.5000 -0.8660
vn -0.0000 0.2588 -0.9659
vn -0.0000 0.7071 -0.7071
vn -0.0000 0.8660 -0.5000
vt 0.218750 0.475000
vt 0.218750 0.449118
vt 0.218750 0.028407
vt 0.218750 0.025000
vt 0.218750 0.225000
vt 0.218750 0.199118
vt 0.218750 0.173236
vt 0.218750 0.125000
vt 0.218750 0.083579
vt 0.218750 0.051795
vt 0.218750 0.031815
vt 0.343750 0.031815
vt 0.343750 0.028407
vt 0.343750 0.125000
vt 0.343750 0.173236
vt 0.343750 0.083579
vt 0.343750 0.051795
vt 0.343750 0.199118
s 1
usemtl colormap.019
f 1/1/1 3/1/1 2/1/1
f 4/1/1 2/1/1 3/1/1
f 5/2/2 2/1/2 6/2/2
f 4/1/2 6/2/2 2/1/2
f 7/3/3 9/3/3 8/4/3
f 10/4/3 8/4/3 9/3/3
f 8/4/4 10/4/4 11/4/4
f 12/4/4 11/4/4 10/4/4
f 13/5/1 15/5/1 14/5/1
f 16/5/1 14/5/1 15/5/1
f 17/5/5 16/5/5 18/6/5
f 18/6/5 16/5/5 19/7/5
f 19/7/5 16/5/5 20/8/6
f 16/5/5 15/5/5 20/8/6
f 20/8/6 15/5/5 21/9/5
f 15/5/5 12/4/5 21/9/5
f 22/10/5 21/9/5 12/4/5
f 23/11/5 22/10/5 12/4/5
f 10/4/5 23/11/5 12/4/5
f 24/3/7 23/11/5 10/4/5
f 12/4/8 15/5/8 11/4/8
f 13/5/8 11/4/8 15/5/8
f 13/5/9 14/5/9 11/4/9
f 25/8/9 11/4/9 14/5/9
f 26/7/9 25/8/9 14/5/9
f 27/6/9 26/7/9 14/5/9
f 28/5/9 27/6/9 14/5/9
f 29/9/9 11/4/9 25/8/9
f 30/10/9 11/4/9 29/9/9
f 31/11/9 11/4/9 30/10/9
f 8/4/9 11/4/9 31/11/9
f 32/3/10 8/4/11 31/11/12
f 31/12/13 23/12/14 32/13/3
f 24/13/3 32/13/3 23/12/13
f 25/14/15 26/15/16 20/14/15
f 19/15/16 20/14/15 26/15/16
f 29/16/17 21/16/17 30/17/18
f 22/17/18 30/17/18 21/16/17
f 26/15/16 27/18/2 19/15/16
f 18/18/2 19/15/16 27/18/2
f 30/17/18 22/17/18 31/12/13
f 23/12/14 31/12/13 22/17/18
f 29/16/17 25/14/15 21/16/17
f 20/14/15 21/16/17 25/14/15
