# Blender 5.0.0
# www.blender.org
o floor_wood
v -3.000000 0.000000 -0.767290
v -3.000000 -0.000000 -2.767290
v -1.000000 0.000000 -0.767290
v -1.000000 -0.000000 -2.767290
v -2.800000 0.000000 -1.053357
v -2.800000 -0.000000 -2.053357
v -2.800000 0.012500 -1.053357
v -2.600000 0.012500 -1.053357
v -2.600000 -0.000000 -2.053357
v -2.600000 0.000000 -1.053357
v -1.200000 0.000000 -1.767290
v -1.200000 0.000000 -0.767290
v -1.200000 0.025000 -1.767290
v -1.400000 0.025000 -1.767290
v -1.400000 0.000000 -0.767290
v -1.400000 0.000000 -1.767290
v -1.800000 0.000000 -1.367290
v -1.800000 -0.000000 -2.367290
v -1.800000 0.012500 -1.367290
v -1.600000 0.012500 -1.367290
v -1.600000 -0.000000 -2.367290
v -1.600000 0.000000 -1.367290
v -2.400000 -0.000000 -2.767290
v -2.400000 -0.000000 -2.267290
v -2.400000 0.025000 -2.767290
v -2.600000 0.025000 -2.767290
v -2.600000 -0.000000 -2.267290
v -2.600000 -0.000000 -2.767290
v -2.500000 0.025000 -1.688811
v -2.500000 0.000000 -1.688811
v -2.500000 -0.000000 -2.188811
v -2.300000 0.000000 -1.688811
v -2.300000 0.025000 -1.688811
v -2.300000 -0.000000 -2.188811
vn -0.0000 1.0000 -0.0000
vn -1.0000 -0.0000 -0.0000
vn 1.0000 -0.0000 -0.0000
vn -0.0000 -0.0000 1.0000
vn -0.0000 0.7115 0.7027
vn -0.0000 0.9999 -0.0125
vn -0.0000 -0.0000 -1.0000
vn -0.0003 0.7164 -0.6977
vn -0.0000 0.7159 -0.6982
vn -0.0000 0.9997 0.0250
vn -0.0004 0.7071 -0.7071
vn 0.0001 0.7118 0.7024
vn -0.0000 0.7071 0.7071
vn -0.0025 0.7275 -0.6861
vn -0.0000 0.7245 -0.6892
vn -0.0000 0.9988 0.0499
vn -0.0006 0.7072 -0.7071
vn -0.0000 0.7245 0.6892
vn 0.0025 0.7275 0.6861
vn -0.0000 0.9988 -0.0499
vn 0.0006 0.7072 0.7071
vt 0.531250 0.125000
vt 0.593750 0.225000
vt 0.593750 0.215000
s 1
f 1/1/1 3/1/1 2/1/1
f 4/1/1 2/1/1 3/1/1
f 5/2/2 7/3/2 6/2/2
f 8/3/3 10/2/3 9/2/3
f 10/2/4 8/3/5 5/2/4
f 7/3/5 5/2/4 8/3/5
f 8/3/5 9/2/6 7/3/5
f 6/2/6 7/3/5 9/2/6
f 11/2/3 13/3/3 12/2/3
f 14/3/2 16/2/2 15/2/2
f 16/2/7 14/3/8 11/2/7
f 13/3/9 11/2/7 14/3/8
f 15/2/10 12/2/10 14/3/11
f 13/3/9 14/3/8 12/2/10
f 17/2/2 19/3/2 18/2/2
f 20/3/3 22/2/3 21/2/3
f 22/2/4 20/3/12 17/2/4
f 19/3/5 17/2/4 20/3/12
f 21/2/6 18/2/6 20/3/13
f 19/3/5 20/3/12 18/2/6
f 23/2/3 25/3/3 24/2/3
f 26/3/2 28/2/2 27/2/2
f 28/2/7 26/3/14 23/2/7
f 25/3/15 23/2/7 26/3/14
f 27/2/16 24/2/16 26/3/17
f 25/3/15 26/3/14 24/2/16
f 29/3/2 31/2/2 30/2/2
f 32/2/3 34/2/3 33/3/3
f 29/3/18 33/3/19 31/2/20
f 34/2/20 31/2/20 33/3/21
f 32/2/4 33/3/19 30/2/4
f 29/3/18 30/2/4 33/3/19
